<?xml version="1.0" encoding="utf-8"?>
<!-- Svg Vector Icons : http://www.onlinewebfonts.com/icon -->
<!DOCTYPE svg PUBLIC "-//W3C//DTD SVG 1.1//EN" "http://www.w3.org/Graphics/SVG/1.1/DTD/svg11.dtd">
<svg version="1.1" xmlns="http://www.w3.org/2000/svg" xmlns:xlink="http://www.w3.org/1999/xlink" x="0px" y="0px" viewBox="0 0 256 256" enable-background="new 0 0 256 256" xml:space="preserve">
<metadata> Svg Vector Icons : http://www.onlinewebfonts.com/icon </metadata>
<g><g><path stroke-width="2" fill-opacity="0" stroke="#000000"  d="M114,143.1c1.4-4.1,4.3-6.1,8.2-6.1c5.6,0,11.3-0.1,16.9,0c1.6,0,2-0.5,2-2c0-4.2,0-4.2-4.2-4.2c-6.9,0-13.8-0.1-20.7,0c-1.9,0-2.2-0.5-2.2-2.3c0.1-4.5,0.1-9.1,0-13.6c0-1.5,0.2-2,1.9-2c9.7,0.1,19.4,0.1,29.1,0c1.8,0,1.9,0.6,1,1.9c-1.7,2.5-3.8,4.1-7,4.1c-5.6-0.1-11.3,0-16.9-0.1c-1.8,0-2.5,0.4-2.2,2.2c0.1,0.6,0.1,1.3,0,1.9c-0.2,1.5,0.4,1.9,1.9,1.9c7.7-0.1,15.4,0,23.1-0.1c1.6,0,2.2,0.3,2.2,2c-0.1,4.8,0,9.7,0,14.5c0,0.8,0.2,1.8-1.2,1.8C135.2,143.1,124.8,143.1,114,143.1z"/><path stroke-width="2" fill-opacity="0" stroke="#000000"  d="M31.9,131.1c0,3.3-0.1,6.7,0,10c0,1.6-0.4,2-2,2c-4.1,0-4.1,0-4.1-4.1c0-5.9-0.1-11.8,0-17.6c0-1.8-0.3-2.6-2.3-2.4c-2,0.2-4.1,0-6.2,0c-3.4,0-5.5-2-7.1-4.7c-0.6-1-0.4-1.4,0.8-1.4c11.8,0,23.7,0,35.5,0c1.3,0,1.3,0.5,0.9,1.4c-1.1,2.5-4.3,4.7-7.2,4.7c-2.1,0-4.1,0.1-6.2,0c-2-0.2-2.4,0.7-2.3,2.4C32,124.6,31.9,127.9,31.9,131.1z"/><path stroke-width="2" fill-opacity="0" stroke="#000000"  d="M229,124.7c4.8,0,9.7,0.1,14.5,0c1.6,0,2,0.5,2,2c-0.1,4.8-0.1,9.7,0,14.5c0,1.3-0.2,1.8-1.7,1.8c-4.3,0-4.3,0.1-4.3-4.2c0-2.2,0-4.5,0-6.7c0-1-0.3-1.4-1.3-1.4c-6.2,0-12.4,0-18.6,0c-1.2,0-1.3,0.5-1.3,1.4c0,3,0,6,0,9.1c0,1.4-0.4,1.7-1.7,1.7c-4.2,0-4.2,0.1-4.2-4c0-4.1,0.1-8.3,0-12.4c0-1.5,0.3-2,2-2C219.4,124.7,224.2,124.6,229,124.7C229,124.6,229,124.7,229,124.7z"/><path stroke-width="2" fill-opacity="0" stroke="#000000"  d="M163.6,127.8c0-4.3,0.1-8.6,0-12.9c0-1.6,0.4-2,2-2c4,0.1,3.9,0,3.9,4c0,6,0,12.1,0,18.1c0,1.5,0.4,1.9,1.9,1.9c7.4-0.1,14.8,0,22.2-0.1c2.1,0,2.1,0.7,1.2,2.1c-1.4,2.4-3.3,3.9-6.3,3.8c-7.6-0.1-15.3-0.1-22.9-0.1c-1.5,0-1.9-0.4-1.9-1.9C163.7,136.6,163.6,132.2,163.6,127.8z"/><path stroke-width="2" fill-opacity="0" stroke="#000000"  d="M79.8,124.7c5.2,0,10.3,0.1,15.5,0c2.1,0,1.9,0.7,1.1,2c-1.8,2.5-4,4.2-7.3,4.1c-6.3-0.1-12.7,0-19,0c-3.4,0-5.5-2-7.2-4.7c-0.7-1.3-0.1-1.4,1-1.4C69.1,124.7,74.4,124.7,79.8,124.7z"/><path stroke-width="2" fill-opacity="0" stroke="#000000"  d="M62.6,137.2c0.6-0.4,1.2-0.2,1.8-0.2c10.2,0,20.4,0,30.5,0c0.7,0,1.6-0.4,1.9,0.4c0.3,0.7-0.3,1.3-0.7,1.9c-1.8,2.4-4,3.9-7.2,3.8c-6.3-0.1-12.6,0-18.8,0C66.6,143,63.5,140.6,62.6,137.2z"/><path stroke-width="2" fill-opacity="0" stroke="#000000"  d="M62.5,113.1c0.5,0,0.9-0.1,1.4-0.1c10.4,0,20.8,0,31.2,0c0.6,0,1.4-0.4,1.7,0.3c0.3,0.7-0.3,1.2-0.6,1.7c-1.8,2.4-3.9,4-7.1,4c-6.4-0.1-12.7,0-19.1,0C66.6,119.1,63.6,116.7,62.5,113.1z"/><path stroke-width="2" fill-opacity="0" stroke="#000000"  d="M246,113.2c-1.2,3.5-4,5.7-7.5,5.7c-6.4,0-12.8,0-19.3,0c-3.3,0-5.4-1.8-7.2-4.3c-0.6-0.8-0.8-1.6,0.7-1.6c10.9,0,21.9,0,32.8,0C245.8,113,245.9,113.2,246,113.2z"/></g></g>
</svg>